<?xml version="1.0" encoding="utf-8"?>
<!-- Generator: Adobe Illustrator 16.0.0, SVG Export Plug-In . SVG Version: 6.00 Build 0)  -->
<svg version="1.2" baseProfile="tiny" id="svg559" xmlns:svg="http://www.w3.org/2000/svg"
	 xmlns="http://www.w3.org/2000/svg" xmlns:xlink="http://www.w3.org/1999/xlink" x="0px" y="0px" width="283.428px"
	 height="263.183px" viewBox="45.786 61.817 283.428 263.183" xml:space="preserve">
<path id="path569" fill="none" stroke="#000000" stroke-width="12.5" d="M187.5,75L56.25,318.75h262.5L187.5,75z"/>
<path id="text936" d="M192.777,201.945v11.843c-3.03-3.521-6.27-6.153-9.717-7.896c-3.417-1.742-7.057-2.613-10.919-2.613
	c-7.605,0-13.43,2.91-17.471,8.729c-4.041,5.782-6.062,14.16-6.062,25.133c0,10.936,2.021,19.312,6.062,25.133
	c4.041,5.782,9.864,8.674,17.471,8.674c3.863,0,7.502-0.871,10.919-2.613c3.447-1.742,6.687-4.375,9.717-7.896v11.731
	c-3.149,2.669-6.492,4.671-10.028,6.006c-3.506,1.335-7.221,2.002-11.143,2.002c-10.072,0-18.006-3.838-23.8-11.511
	c-5.794-7.71-8.69-18.219-8.69-31.525c0-13.345,2.896-23.854,8.69-31.526c5.794-7.71,13.728-11.565,23.8-11.565
	c3.981,0,7.726,0.668,11.231,2.002C186.374,197.349,189.687,199.312,192.777,201.945 M206.771,195.551h9.003v73.562h32.401v9.453
	h-41.404V195.551"/>
</svg>
