<?xml version="1.0" encoding="utf-8"?>
<!-- Generator: Adobe Illustrator 16.0.0, SVG Export Plug-In . SVG Version: 6.00 Build 0)  -->
<svg version="1.2" baseProfile="tiny" id="svg1568" xmlns:svg="http://www.w3.org/2000/svg"
	 xmlns="http://www.w3.org/2000/svg" xmlns:xlink="http://www.w3.org/1999/xlink" x="0px" y="0px" width="236.988px"
	 height="245.078px" viewBox="69.007 63.991 236.988 245.078" xml:space="preserve">
<path id="path1580" fill="none" stroke="#000000" stroke-width="12.5" d="M299.745,186.529
	c0.01-64.222-50.247-116.289-112.244-116.289c-61.998,0-112.254,52.067-112.244,116.289
	c-0.01,64.222,50.247,116.289,112.244,116.289C249.498,302.818,299.755,250.751,299.745,186.529L299.745,186.529z"/>
<path id="text914" d="M173.09,141.445v44.195H193.1c7.406,0,13.131-1.917,17.174-5.751c4.045-3.834,6.066-9.296,6.066-16.386
	c0-7.038-2.021-12.473-6.066-16.307c-4.043-3.834-9.768-5.751-17.174-5.751H173.09 M157.177,128.368H193.1
	c13.183,0,23.135,2.994,29.857,8.98c6.775,5.935,10.162,14.653,10.162,26.155c0,11.607-3.387,20.377-10.162,26.312
	c-6.723,5.935-16.675,8.902-29.857,8.902H173.09v47.268h-15.914V128.368"/>
</svg>
