<?xml version="1.0" encoding="utf-8"?>
<!-- Generator: Adobe Illustrator 16.0.0, SVG Export Plug-In . SVG Version: 6.00 Build 0)  -->
<svg version="1.2" baseProfile="tiny" id="svg1568" xmlns:svg="http://www.w3.org/2000/svg"
	 xmlns="http://www.w3.org/2000/svg" xmlns:xlink="http://www.w3.org/1999/xlink" x="0px" y="0px" width="260.044px"
	 height="260.043px" viewBox="57.478 57.478 260.044 260.043" xml:space="preserve">
<path id="path1580" fill="none" stroke="#000000" stroke-width="9.7577" d="M297.025,187.186
	c0.01-62.666-49.029-113.471-109.524-113.471S77.967,124.521,77.977,187.186c-0.009,62.666,49.029,113.47,109.524,113.47
	S297.035,249.852,297.025,187.186L297.025,187.186z"/>
<rect id="rect1542" x="63.728" y="63.728" fill="none" stroke="#000000" stroke-width="12.5" width="247.544" height="247.543"/>
<path id="path2165" stroke="#000000" stroke-width="1.25" d="M168.75,187.5c0,10.355-8.395,18.75-18.75,18.75
	s-18.75-8.395-18.75-18.75s8.395-18.75,18.75-18.75S168.75,177.145,168.75,187.5z"/>
<path id="path2166" stroke="#000000" stroke-width="1.25" d="M243.75,187.5c0,10.355-8.395,18.75-18.75,18.75
	s-18.75-8.395-18.75-18.75s8.395-18.75,18.75-18.75S243.75,177.145,243.75,187.5z"/>
</svg>
