<?xml version="1.0" encoding="utf-8"?>
<!-- Generator: Adobe Illustrator 16.0.0, SVG Export Plug-In . SVG Version: 6.00 Build 0)  -->
<svg version="1.2" baseProfile="tiny" id="svg559" xmlns:svg="http://www.w3.org/2000/svg"
	 xmlns="http://www.w3.org/2000/svg" xmlns:xlink="http://www.w3.org/1999/xlink" x="0px" y="0px" width="312.5px"
	 height="195.451px" viewBox="31.25 92.049 312.5 195.451" xml:space="preserve">
<path id="path1648" fill="none" stroke="#000000" stroke-width="12.5" stroke-linecap="round" stroke-linejoin="round" d="
	M111.85,98.299H300l37.5,182.951h-300c0,0,56.25-93.75,112.5-93.75s168.75,0,168.75,0"/>
<path id="path1649" stroke="#000000" d="M163.525,235.625c0-10.355-7.734-18.75-17.275-18.75s-17.275,8.395-17.275,18.75
	s7.734,18.75,17.275,18.75S163.525,245.98,163.525,235.625L163.525,235.625z"/>
<path id="path1659" stroke="#000000" d="M224.375,235.625c0-10.355-7.734-18.75-17.275-18.75c-9.54,0-17.274,8.395-17.274,18.75
	s7.734,18.75,17.274,18.75C216.641,254.375,224.375,245.98,224.375,235.625L224.375,235.625z"/>
<path id="path1660" stroke="#000000" d="M287.275,235.625c0-10.355-7.734-18.75-17.275-18.75s-17.275,8.395-17.275,18.75
	s7.734,18.75,17.275,18.75S287.275,245.98,287.275,235.625L287.275,235.625z"/>
</svg>
