<?xml version="1.0" encoding="utf-8"?>
<!-- Generator: Adobe Illustrator 16.0.0, SVG Export Plug-In . SVG Version: 6.00 Build 0)  -->
<svg version="1.2" baseProfile="tiny" id="svg1" xmlns:svg="http://www.w3.org/2000/svg"
	 xmlns="http://www.w3.org/2000/svg" xmlns:xlink="http://www.w3.org/1999/xlink" x="0px" y="0px" width="312.645px"
	 height="209.427px" viewBox="31.207 75.677 312.645 209.427" xml:space="preserve">
<g id="g13088">
	<path id="path650" fill="none" stroke="#000000" stroke-width="12.5" d="M45.759,145.547c23.458,0,23.458-20.89,46.917-20.89
		c23.458,0,23.458,20.89,46.917,20.89"/>
	<path id="path12465" fill="none" stroke="#000000" stroke-width="12.5" d="M234.314,145.547c23.459,0,23.459-20.89,46.916-20.89
		c23.459,0,23.459,20.89,46.916,20.89"/>
</g>
<path id="path651" fill="none" stroke="#000000" stroke-width="12.5" stroke-linecap="round" stroke-linejoin="round" d="
	M37.457,106.871l34.397,171.983h230.314l35.434-171.983"/>
<path id="path924" fill="none" stroke="#000000" stroke-width="6.6434" stroke-linecap="round" stroke-linejoin="round" d="
	M164.119,78.999c-2.12,9.942-4.239,19.887-6.359,29.831c-5.273,7.303-12.622,13.569-14.868,22.534
	c-2.346,6.294-4.757,12.568-6.828,18.951c1.433,14.398,2.867,28.799,4.3,43.195c4.56,4.736,14.216,5.079,16.194-2.225
	c1.652-6.812-1.046-13.811,0.547-20.658c-0.078-4.465-1.979-15.587,2.065-15.57c0.414,7.517-1.209,14.979-1.397,22.492
	c-1.062,9.156-0.983,18.383,0.434,27.496c1.48,14.422,2.96,28.844,4.439,43.266c4.492,4.317,13.994,2.498,14.227-4.23
	c0.218-7.566-0.562-15.137-0.465-22.719c-0.29-11.736-0.58-23.477-0.869-35.215c1.188,23.814,2.376,47.629,3.564,71.443
	c4.737,4.021,13.795,4.658,15.557-2.605c1.148-7.096-0.176-14.338,0.55-21.5c0.224-15.512,0.445-31.021,0.668-46.533
	c0.558,21.525,1.115,43.054,1.673,64.582c5.439,4.398,17.621,2.441,15.869-6.109c0.71-19.31,1.419-38.619,2.128-57.929
	c0.111,17.255,0.224,34.511,0.334,51.767c5.933,2.945,15.403,0.141,13.968-7.506c2.211-23.267,2.998-46.726,7.683-69.709
	c1.729-6.852-1.104-13.533-1.986-20.301c-1.106-7.49-3.791-14.598-7.442-21.271c-3.181-5.824-5.338-12.047-5.515-18.649
	c-0.772-6.693-1.548-13.387-2.321-20.08"/>
</svg>
