<?xml version="1.0" encoding="utf-8"?>
<!-- Generator: Adobe Illustrator 16.0.0, SVG Export Plug-In . SVG Version: 6.00 Build 0)  -->
<svg version="1.2" baseProfile="tiny" id="svg1" xmlns:svg="http://www.w3.org/2000/svg"
	 xmlns="http://www.w3.org/2000/svg" xmlns:xlink="http://www.w3.org/1999/xlink" x="0px" y="0px" width="312.645px"
	 height="232.543px" viewBox="31.207 100.621 312.645 232.543" xml:space="preserve">
<path id="text2897" d="M164.827,179.276l-22.515,40.726h22.515V179.276 M162.487,170.282H173.7v49.72h9.403v8.585H173.7v17.987
	h-8.874v-17.987h-29.755v-9.964L162.487,170.282 M216.965,177.079c-4.592,0-8.05,2.623-10.375,7.869
	c-2.296,5.212-3.443,13.065-3.443,23.557c0,10.458,1.147,18.311,3.443,23.558c2.325,5.211,5.783,7.817,10.375,7.817
	c4.62,0,8.078-2.606,10.374-7.817c2.325-5.247,3.487-13.1,3.487-23.558c0-10.492-1.162-18.345-3.487-23.557
	C225.043,179.702,221.585,177.079,216.965,177.079 M216.965,168.903c7.387,0,13.023,3.39,16.908,10.168
	c3.914,6.745,5.871,16.557,5.871,29.434c0,12.843-1.957,22.654-5.871,29.434c-3.885,6.745-9.521,10.118-16.908,10.118
	c-7.388,0-13.039-3.373-16.953-10.118c-3.885-6.779-5.827-16.591-5.827-29.434c0-12.877,1.942-22.688,5.827-29.434
	C203.926,172.292,209.577,168.903,216.965,168.903"/>
<g id="g2806">
	<path id="path684" fill="none" stroke="#000000" stroke-width="12.5" d="M46.352,145.547c23.458,0,23.458-20.89,46.917-20.89
		c23.458,0,23.458,20.89,46.917,20.89c23.458,0,23.458-20.89,46.917-20.89c23.459,0,23.459,20.89,46.917,20.89
		s23.458-20.89,46.917-20.89c23.458,0,23.458,20.89,46.916,20.89"/>
	<path id="path685" fill="none" stroke="#000000" stroke-width="12.5" stroke-linecap="round" stroke-linejoin="round" d="
		M37.457,106.871l34.397,171.985h230.314l35.434-171.985"/>
</g>
<path id="path1556" fill="none" stroke="#000000" stroke-width="12.7155" stroke-linecap="round" d="M76.905,304.307h220.818"/>
<path id="path934" fill="none" stroke="#000000" stroke-width="12.7155" stroke-linecap="round" d="M76.905,326.807h220.818"/>
</svg>
