<?xml version="1.0" encoding="utf-8"?>
<!-- Generator: Adobe Illustrator 16.0.0, SVG Export Plug-In . SVG Version: 6.00 Build 0)  -->
<svg version="1.2" baseProfile="tiny" id="svg1" xmlns:svg="http://www.w3.org/2000/svg"
	 xmlns="http://www.w3.org/2000/svg" xmlns:xlink="http://www.w3.org/1999/xlink" x="0px" y="0px" width="312.645px"
	 height="184.484px" viewBox="31.207 100.621 312.645 184.484" xml:space="preserve">
<path id="text2897" d="M159.464,204.314c-4.002,0-7.181,1.584-9.536,4.752c-2.325,3.169-3.487,7.513-3.487,13.031
	c0,5.483,1.162,9.827,3.487,13.029c2.354,3.168,5.533,4.752,9.536,4.752s7.167-1.584,9.492-4.752
	c2.354-3.202,3.532-7.546,3.532-13.029c0-5.521-1.178-9.862-3.532-13.031C166.631,205.898,163.467,204.314,159.464,204.314
	 M177.167,171.969v9.402c-2.237-1.228-4.503-2.163-6.799-2.812c-2.267-0.646-4.519-0.972-6.754-0.972
	c-5.886,0-10.389,2.301-13.509,6.898c-3.09,4.6-4.856,11.55-5.298,20.85c1.736-2.964,3.915-5.229,6.534-6.796
	c2.62-1.603,5.505-2.401,8.653-2.401c6.622,0,11.846,2.334,15.672,7.001c3.855,4.633,5.783,10.951,5.783,18.958
	c0,7.835-2.001,14.119-6.004,18.854c-4.004,4.734-9.33,7.104-15.981,7.104c-7.623,0-13.45-3.373-17.482-10.118
	c-4.032-6.778-6.048-16.591-6.048-29.435c0-12.061,2.472-21.666,7.417-28.819c4.944-7.188,11.581-10.782,19.911-10.782
	c2.236,0,4.487,0.256,6.754,0.767C172.311,170.18,174.695,170.948,177.167,171.969 M215.93,177.079
	c-4.593,0-8.051,2.623-10.375,7.869c-2.297,5.212-3.443,13.064-3.443,23.557c0,10.458,1.146,18.312,3.443,23.559
	c2.324,5.211,5.782,7.816,10.375,7.816c4.619,0,8.078-2.605,10.373-7.816c2.325-5.247,3.488-13.101,3.488-23.559
	c0-10.491-1.163-18.345-3.488-23.557C224.008,179.702,220.549,177.079,215.93,177.079 M215.93,168.903
	c7.387,0,13.021,3.391,16.907,10.168c3.914,6.745,5.871,16.558,5.872,29.435c-0.001,12.844-1.958,22.654-5.872,29.435
	c-3.886,6.745-9.521,10.118-16.907,10.118c-7.389,0-13.039-3.373-16.953-10.118c-3.885-6.778-5.828-16.591-5.828-29.435
	c0-12.877,1.943-22.688,5.828-29.435C202.891,172.292,208.541,168.903,215.93,168.903"/>
<g id="g2806">
	<path id="path681" fill="none" stroke="#000000" stroke-width="12.5" d="M46.352,145.547c23.458,0,23.458-20.89,46.917-20.89
		c23.458,0,23.458,20.89,46.917,20.89c23.458,0,23.458-20.89,46.917-20.89s23.459,20.89,46.916,20.89
		c23.459,0,23.459-20.89,46.918-20.89c23.456,0,23.456,20.89,46.914,20.89"/>
	<path id="path682" fill="none" stroke="#000000" stroke-width="12.5" stroke-linecap="round" stroke-linejoin="round" d="
		M37.457,106.871l34.397,171.984h230.314l35.434-171.984"/>
</g>
</svg>
